<?xml version="1.0" encoding="utf-8"?>
<!-- Generator: Adobe Illustrator 26.0.1, SVG Export Plug-In . SVG Version: 6.00 Build 0)  -->
<svg version="1.1" id="Layer_1" xmlns="http://www.w3.org/2000/svg" xmlns:xlink="http://www.w3.org/1999/xlink" x="0px" y="0px"
	 viewBox="0 0 595.28 841.89" style="enable-background:new 0 0 595.28 841.89;" xml:space="preserve">
<style type="text/css">
	.st0{fill:#006838;}
	.st1{fill:#9D6333;}
	.st2{fill:#B97F43;}
	.st3{fill:#814A21;}
	.st4{fill:#009444;}
	.st5{fill:#414042;}
	.st6{fill:#E5BE9E;}
	.st7{fill:#F9CEAB;}
	.st8{fill:#D09C72;}
	.st9{fill:#00A14B;}
	.st10{fill:#00883E;}
	.st11{fill:#E2A97C;}
	.st12{fill:#A97C50;}
	.st13{fill:#BC8F2B;}
	.st14{fill:#FFD76B;}
	.st15{fill:#D3B13E;}
	.st16{fill:#FDD1AD;}
	.st17{fill:#C49A6C;}
	.st18{fill:#EBB482;}
	.st19{opacity:0.5;}
	.st20{fill:#3C2415;}
</style>
<g>
	<g>
		<polygon class="st0" points="327.49,205.52 240.25,205.52 216.7,189.14 225.91,180.71 286.2,173.45 349.07,189.14 		"/>
	</g>
	<g>
		<polygon class="st1" points="357.56,447.05 294.67,501.95 197.35,450.42 283.5,436.71 		"/>
	</g>
	<g>
		<polygon class="st2" points="267.85,618 180.47,615.76 197.35,450.42 294.67,501.95 		"/>
	</g>
	<g>
		<polygon class="st3" points="357.56,447.05 294.67,501.95 289.38,524.96 310.83,618 394.04,611.68 		"/>
	</g>
	<g>
		<polygon class="st4" points="288.34,461.62 193.24,449.54 193.24,301.4 287.26,246.89 		"/>
	</g>
	<g>
		<polygon class="st0" points="361.29,445.97 288.34,461.62 287.26,246.89 355.32,297.34 		"/>
	</g>
	<g>
		<polygon class="st0" points="287.26,246.89 193.24,301.4 164.57,234.46 240.25,205.52 		"/>
	</g>
	<g>
		<polygon class="st4" points="355.32,297.34 287.26,246.89 327.49,205.52 386.72,238.14 		"/>
	</g>
	<g>
		<polygon class="st5" points="287.26,246.89 240.25,205.52 287.26,217.63 327.49,205.52 		"/>
	</g>
	<g>
		<polygon class="st6" points="287.26,217.63 240.25,205.52 217.71,82.01 247.49,51.15 		"/>
	</g>
	<g>
		<polygon class="st7" points="261.43,183.77 346.33,182.65 349.07,47.65 247.49,51.15 		"/>
	</g>
	<g>
		<polygon class="st8" points="327.49,205.52 287.26,217.63 261.43,183.77 325.18,182.92 		"/>
	</g>
	<g>
		<polygon class="st9" points="423.31,341.24 355.32,297.34 386.72,238.14 443.88,296.51 		"/>
	</g>
	<g>
		<polygon class="st0" points="461.3,360.59 423.31,341.24 443.88,296.51 480.36,310.65 		"/>
	</g>
	<g>
		<polygon class="st9" points="161.05,362.83 123.81,342.63 164.57,234.46 193.24,301.4 		"/>
	</g>
	<g>
		<polygon class="st0" points="146.17,396.37 110.4,377.79 123.81,342.63 161.05,362.83 		"/>
	</g>
	<g>
		<polygon class="st10" points="301.64,399.04 242.96,395.13 231.52,446.63 270.32,454.59 		"/>
	</g>
	<g>
		<polygon class="st7" points="234.19,435.62 146.17,396.37 161.05,362.83 240.87,406.14 		"/>
	</g>
	<g>
		<polygon class="st7" points="239.43,726.37 201.49,728.41 193.24,616.08 252.63,618 		"/>
	</g>
	<g>
		<polygon class="st11" points="366.75,725.27 332.19,730.57 325.39,616.89 377.53,612.94 		"/>
	</g>
	<g>
		<polygon class="st6" points="507.67,222.88 480.36,213.52 483.91,174.63 526.01,187.59 		"/>
	</g>
	<g>
		<polygon class="st8" points="526.01,187.59 483.91,174.63 500.98,147.52 527.13,157.27 		"/>
	</g>
	<g>
		<polygon class="st8" points="491,203.28 483.91,222.88 465.94,174.2 475.77,171.44 		"/>
	</g>
	<g>
		<polygon class="st7" points="480.36,310.65 443.88,296.51 480.36,213.52 507.67,222.88 		"/>
	</g>
	<g>
		<polygon class="st9" points="333.63,445.75 270.32,454.59 301.64,399.04 322.32,393.13 		"/>
	</g>
	<g>
		<polygon class="st5" points="240.25,733.98 201.49,735.58 201.49,728.41 239.43,726.37 		"/>
	</g>
	<g>
		<polygon points="248.64,760.9 195.7,760.9 201.49,735.58 240.25,733.98 		"/>
	</g>
	<g>
		<polygon class="st5" points="247.44,767.77 197.9,767.91 195.7,760.9 248.64,760.9 		"/>
	</g>
	<g>
		<polygon class="st5" points="369.42,731.98 331.03,737.37 332.19,730.57 366.75,725.27 		"/>
	</g>
	<g>
		<polygon points="396.21,757.76 325.1,757.48 331.03,737.37 369.42,731.98 		"/>
	</g>
	<g>
		<polygon class="st5" points="397.6,765.67 325.47,765.67 325.1,757.48 396.21,757.76 		"/>
	</g>
	<g>
		<polygon class="st12" points="241.99,158.16 233.73,169.8 225.91,161.75 240.25,141.53 		"/>
	</g>
	<g>
		<polygon class="st13" points="322.1,75.49 283.87,76.56 292.48,33.27 343.62,33.27 		"/>
	</g>
	<g>
		<polygon class="st14" points="346.55,65.08 322.1,75.49 343.62,33.27 356.48,40.91 		"/>
	</g>
	<g>
		<polygon class="st13" points="348.41,78.46 346.55,65.08 356.48,40.91 356.3,60.42 		"/>
	</g>
	<g>
		<polygon class="st14" points="283.87,76.56 248.78,63.14 247.49,48.9 292.48,33.27 		"/>
	</g>
	<g>
		<polygon class="st15" points="247.49,51.15 211.52,79.92 225.91,52.15 292.48,33.27 		"/>
	</g>
	<g>
		<polygon class="st13" points="248.78,63.14 214.13,94.85 211.52,79.92 247.49,51.15 		"/>
	</g>
	<g>
		<polygon class="st14" points="249.74,122 227.06,133.22 220.32,109.16 248.78,86.4 		"/>
	</g>
	<g>
		<polygon class="st16" points="241.99,158.16 221.99,162.62 214.19,129.61 238.76,127.37 		"/>
	</g>
	<g>
		<polygon class="st15" points="248.78,86.4 220.32,109.16 214.13,94.85 241.39,69.9 		"/>
	</g>
	<g>
		<polygon class="st16" points="312.15,138.12 297.6,138.12 298.28,109.2 311.09,109.2 		"/>
	</g>
	<g>
		<polygon class="st17" points="304.87,145 297.6,138.12 312.15,138.12 		"/>
	</g>
	<g>
		<polygon class="st13" points="298.28,109.2 277.46,107.69 267.66,110.65 276.65,103.58 		"/>
	</g>
	<g>
		<polygon class="st13" points="310.64,109.2 331.46,107.69 341.26,110.65 332.27,103.58 		"/>
	</g>
	<g>
		<polygon class="st18" points="324.39,117.74 312.15,138.12 311.09,109.2 331.46,107.69 341.26,110.65 		"/>
	</g>
	<g>
		<polygon class="st18" points="284.7,115.71 297.6,138.12 298.28,109.2 277.46,107.69 267.66,110.65 		"/>
	</g>
	<g>
		<circle cx="282.97" cy="117.8" r="2.8"/>
	</g>
	<g>
		<circle cx="323.64" cy="117.59" r="2.8"/>
	</g>
	<g class="st19">
		<polygon class="st14" points="346.33,182.65 261.43,183.77 257.35,145 347.05,147.02 		"/>
	</g>
	<g>
		<rect x="295.01" y="159.28" class="st20" width="23.4" height="1"/>
	</g>
	<g>
		<polygon class="st20" points="318.42,160.28 318.21,159.33 323.86,156.71 324.28,157.62 		"/>
	</g>
	<g>
		<polygon class="st20" points="295.01,160.28 287.14,158.42 287.37,157.45 295.13,159.3 		"/>
	</g>
	<g>
		<polygon class="st17" points="235.38,145 230.43,136.58 220.32,133.96 233.88,133.96 		"/>
	</g>
	<g>
		<polygon class="st15" points="257.35,145 246.49,168.95 240.07,126.79 249.74,122 		"/>
	</g>
	<g>
		<polygon class="st3" points="209.84,558.29 179.42,554.75 184.04,501.95 215.36,504.82 		"/>
	</g>
	<g>
		<polygon class="st1" points="207.9,518.56 187.59,516.64 184.04,501.95 215.36,504.82 		"/>
	</g>
	<g>
		<polygon class="st1" points="383.84,536.67 378.65,542.2 368.37,495.83 375.63,496.97 		"/>
	</g>
	<g>
		<polygon class="st13" points="261.43,183.77 246.49,181.59 246.49,168.95 257.35,145 		"/>
	</g>
	<g>
		<polygon class="st0" points="333.63,238.14 287.26,246.89 273.14,234.46 317.63,211.79 		"/>
	</g>
	<g>
		<polygon class="st10" points="289.43,248.55 238.96,234.46 248.48,209.29 292.34,245.93 		"/>
	</g>
	<g>
		<polygon class="st9" points="248.48,209.29 238.96,234.46 208.57,217.63 216.7,189.14 239.58,201.86 		"/>
	</g>
	<g>
		<polygon class="st9" points="355.32,220.85 333.63,238.14 317.63,211.79 327.49,205.52 349.07,189.14 		"/>
	</g>
	<g>
		<polygon class="st10" points="361.29,445.97 361.71,460.13 289.38,476.72 193.24,463.1 193.24,449.54 288.34,461.62 		"/>
	</g>
	<polyline class="st9" points="268.38,287.2 268.38,237.29 271.2,237.29 271.2,287.2 	"/>
	<polyline class="st9" points="295.13,301.4 295.13,232.63 297.96,232.63 297.96,301.4 	"/>
</g>
</svg>
